<?xml version="1.0" encoding="UTF-8"?>
<svg id="_레이어_2" data-name="레이어 2" xmlns="http://www.w3.org/2000/svg" viewBox="0 0 500 500">
  <defs>
    <style>
      .cls-1, .cls-2 {
        fill: #fff;
      }

      .cls-3 {
        fill: #fff0e1;
      }

      .cls-2 {
        opacity: 0;
      }

      .cls-4 {
        fill: #111;
      }

      .cls-5 {
        fill: #64d600;
      }

      .cls-6 {
        fill: #f9dec5;
      }

      .cls-7 {
        fill: #6efa00;
      }
    </style>
  </defs>
  <g id="_레이어_1-2" data-name="레이어 1">
    <g>
      <g>
        <path class="cls-3" d="m169.38,66.14c-1.19-5.48-3.51-6.37-5.83-6.51-6.63-.43-8.4,6.97-8.84,10.17-.89,6.39-6.98,74.32-7.04,75.01l-9.38-.64c.04-.84,3.86-84.43,3.86-94.32,0-6.07-1.51-10.75-4.15-12.83-1.7-1.34-3.91-1.66-6.79-.98-3.19.76-6.18,5.99-7.62,13.32-.96,4.91-4.48,58.36-6.61,93.09l-9.4-.3c0-.92.23-92.53,0-104.18l-.03-1.39c-.21-13.05-1.77-20.13-9.42-20.13h-.05c-8.35.03-9.77,5.07-10.97,12.74-.11.7-.21,1.35-.32,1.96-1.25,6.94-2.13,53.5-2.14,113.23h-9.4V57.86c.11-4.68-1-21.81-8.47-22.27-5.17-.32-10.3,1.05-11.67,20.99-.94,13.72,1.1,100.76,1.67,124.41,5.68,2.65,13.67,7.99,19.24,18.44,8.84,16.57,8.51,34.72,8.49,35.49l-9.4-.22c0-.07.05-3.65-.66-8.87-.81-6.04-2.63-14.28-6.73-21.96-4.42-8.28-10.69-12.42-14.95-14.39-2.61-1.21-4.46-1.61-4.65-1.65l.05-.25-.62.05c-.05-.38-4.61-37.75-8.26-52.55-.98-4-4.88-11.37-10.1-14.47-1.63-.97-3.26-1.45-4.93-1.45-.79,0-1.59.11-2.4.32-6.37,1.68-7.02,8.07-7.21,16.25-.03,1.2-.06,2.31-.12,3.27-.38,5.68,2.62,85.58,6.46,102.14,8.38,36.06,26.65,55.2,40.96,61.08,26.23,10.8,38.61,6.91,55.74,1.54,16.58-5.21,25.32-11.91,33.28-37.86,11.25-36.68,14.99-110.21,18.61-181.31.04-.8.1-1.68.15-2.6.29-4.64.69-10.99-.37-15.84Z"/>
        <path class="cls-6" d="m27.14,112.42s-7.12,9.55-7,17.22c.12,7.67,1.47,37.58,1.71,41.01.43,6.22,3.87,28.39,3.87,28.39,0,0,2.96,41,24.7,63.01,21.74,22.01,40.96,28.12,58.24,32.32,17.28,4.21,23.96,2.51,27.31,1.11,3.34-1.39-16.44,12.54-16.44,12.54,0,0-17.28,6.97-32.32,1.95s-53.36-11.98-63.46-55.73c-10.11-43.75-10.59-90.7-10.59-92.1s-6.52-35.49,9.09-50.26"/>
        <path class="cls-4" d="m52.78,189.47l-1.28-2.14-3.32.24-.05.25c.19.04,2.04.44,4.65,1.65Z"/>
        <path class="cls-4" d="m52.16,184.14c-.03-1.29-.07-2.98-.12-5-.32-.1-.59-.18-.84-.24.27,2.05.49,3.79.66,5.14.1.03.2.07.3.11Z"/>
        <path class="cls-4" d="m52.16,184.14c-.1-.04-.2-.07-.3-.11.24,1.89.38,3.01.38,3.01,0,0-.03-1.03-.07-2.9Z"/>
        <path class="cls-4" d="m178.56,64.13c-2.5-11.46-10.12-13.63-14.43-13.9-5.04-.31-9.4,1.43-12.7,4.79.07-2.36.11-4.14.11-5.18,0-9.23-2.67-16.22-7.72-20.21-2.78-2.2-7.6-4.45-14.79-2.76-5.07,1.2-9.24,5.39-12.03,11.86,0-.37,0-.69-.02-.97l-.02-1.35c-.15-9.54-.47-29.38-18.81-29.38h-.1c-16.99.07-19.17,14-20.22,20.69-.1.62-.19,1.21-.29,1.75-.08.44-.16.99-.23,1.65-2.49-2.8-5.75-4.67-9.95-4.93-19.45-1.22-20.99,20.47-21.63,29.73-.56,8.21-.13,40.37.45,70.82-2.45-5.1-6.56-10.91-12.18-14.25-4.55-2.7-9.57-3.44-14.53-2.14-13.72,3.61-14.05,17.61-14.22,25.13-.02,1.05-.04,2.02-.1,2.85-.49,7.25,2.71,87.81,6.68,104.91,11.57,49.76,38.55,64.36,46.54,67.65,13.5,5.56,24,7.56,33.12,7.56,10.72,0,19.52-2.76,29.02-5.75,19.03-5.97,30.36-14.43,39.45-44.07,11.6-37.8,15.37-111.92,19.01-183.59.04-.77.09-1.61.15-2.49.32-5.19.77-12.3-.57-18.43Zm-116.6,238.08c-14.31-5.89-32.58-25.03-40.96-61.08-3.85-16.56-6.85-96.46-6.46-102.14.06-.96.09-2.07.12-3.27.19-8.19.84-14.58,7.21-16.25.81-.21,1.61-.32,2.4-.32,1.67,0,3.3.48,4.93,1.45,5.23,3.1,9.12,10.47,10.1,14.47,3.65,14.81,8.21,52.18,8.26,52.55l.62-.05,3.32-.24,1.28,2.14c4.25,1.97,10.53,6.11,14.95,14.39,4.1,7.68,5.92,15.93,6.73,21.96.7,5.22.66,8.8.66,8.87l9.4.22c.02-.76.35-18.91-8.49-35.49-5.57-10.45-13.57-15.79-19.24-18.44-.58-23.65-2.61-110.69-1.67-124.41,1.37-19.94,6.5-21.3,11.67-20.99,7.48.46,8.59,17.59,8.47,22.27v86.52h9.4c.01-59.73.89-106.3,2.14-113.23.11-.61.21-1.26.32-1.96,1.2-7.68,2.62-12.71,10.97-12.74h.05c7.64,0,9.21,7.08,9.42,20.13l.03,1.39c.23,11.65,0,103.26,0,104.18l9.4.3c2.13-34.73,5.65-88.17,6.61-93.09,1.43-7.34,4.42-12.57,7.62-13.32,2.87-.68,5.09-.36,6.79.98,2.63,2.08,4.15,6.76,4.15,12.83,0,9.89-3.82,93.48-3.86,94.32l9.38.64c.06-.69,6.16-68.62,7.04-75.01.44-3.19,2.21-10.59,8.84-10.17,2.32.15,4.64,1.03,5.83,6.51,1.06,4.85.66,11.2.37,15.84-.06.93-.11,1.8-.15,2.6-3.61,71.1-7.35,144.63-18.61,181.31-7.96,25.95-16.7,32.65-33.28,37.86-17.13,5.38-29.51,9.27-55.74-1.54Zm-9.93-123.07c.05,2.03.09,3.72.12,5,.05,1.87.07,2.9.07,2.9,0,0-.14-1.12-.38-3.01-.17-1.35-.39-3.09-.66-5.14.25.07.52.15.84.24Z"/>
        <rect class="cls-1" x="31.47" y="303.78" width="125.62" height="137.92" rx="10.51" ry="10.51"/>
        <path class="cls-4" d="m146.57,294.37H41.97c-10.98,0-19.91,8.93-19.91,19.91v116.91c0,10.98,8.93,19.91,19.91,19.91h104.6c10.98,0,19.91-8.93,19.91-19.91v-116.91c0-10.98-8.93-19.91-19.91-19.91Zm10.51,136.82c0,5.8-4.71,10.51-10.51,10.51H41.97c-5.8,0-10.51-4.71-10.51-10.51v-116.91c0-5.8,4.71-10.51,10.51-10.51h104.6c5.8,0,10.51,4.71,10.51,10.51v116.91Z"/>
        <rect class="cls-4" x="16.92" y="322.03" width="154.7" height="177.97" rx="10.1" ry="10.1"/>
      </g>
      <g>
        <polygon class="cls-7" points="471.68 125.14 406.6 93.61 395.68 22.13 345.59 74.27 274.23 62.57 308.35 126.33 275.16 190.57 346.34 177.83 397.19 229.24 407.07 157.61 471.68 125.14"/>
        <path class="cls-5" d="m344.37,68.87s-25.48,37.79-18.1,68.16c7.81,32.15,19.59,44.09,19.59,44.09l-4.17,1.02-78.29,14.01,36.13-75.16-37.13-67.58,81.97,15.45Z"/>
        <path class="cls-4" d="m494.89,124.97l-78.95-38.25L402.7,0l-60.77,63.26-86.57-14.2,41.38,77.35-40.26,77.94,86.35-15.46,61.69,62.37,11.98-86.9,78.38-39.39Zm-186.54,1.35l-34.11-63.76,71.35,11.7,50.1-52.14,10.92,71.48,65.08,31.53-64.61,32.47-9.88,71.63-50.85-51.41-71.18,12.74,33.18-64.25Z"/>
      </g>
    </g>
    <rect class="cls-2" width="500" height="500"/>
  </g>
</svg>