<?xml version="1.0" encoding="UTF-8"?>
<svg id="_레이어_2" data-name="레이어 2" xmlns="http://www.w3.org/2000/svg" viewBox="0 0 500 500">
  <defs>
    <style>
      .cls-1 {
        fill: #fff0e1;
      }

      .cls-2 {
        fill: #fff;
        opacity: 0;
      }

      .cls-3 {
        fill: #111;
      }

      .cls-4 {
        fill: #64d600;
      }

      .cls-5 {
        fill: none;
        stroke: #111;
        stroke-miterlimit: 10;
        stroke-width: 5px;
      }

      .cls-6 {
        fill: #f9dec5;
      }

      .cls-7 {
        fill: #6efa00;
      }
    </style>
  </defs>
  <g id="_레이어_1-2" data-name="레이어 1">
    <rect class="cls-2" width="500" height="500"/>
    <g>
      <path class="cls-7" d="m266.21,67.28l-25.03,25.03-25.03-25.03c-24.69-24.69-55.22-38.28-85.98-38.28-36.4,0-62.04,9.41-83.13,30.5C19.74,86.78,6.16,126.24,11.59,162.47c5.3,35.35,29.97,79.44,73.32,131.05,1.54,1.67,29.05,31.35,57.08,58.66,30.61,27.44,86.98,74.68,99.98,85.54,12.92-10.99,68.98-58.8,99.56-86.83,25.98-25.4,56.89-57.6,58.93-59.72,2.34-2.82,4.78-5.71,7.3-8.68,24.23-28.64,54.39-64.28,61.95-120.19,3.9-28.82-5.4-73.34-35.05-102.99-45.75-45.75-118.17-42.33-168.46,7.95Z"/>
      <path class="cls-4" d="m110.51,37.38c-25.04,9.68-51.54,52.98-57.2,70.55-14.71,45.64,1.98,90.43,15.95,119.36,20.57,42.61,47.22,76.85,71.84,107.84,58.53,73.68,100.89,103.9,100.89,103.9,0,0-139.79-114.33-161.49-143.51C58.79,266.33-3.68,193.25,7.16,129.28c10.85-63.97,46.76-82.67,47.51-81.18s17.58-16.87,45.64-19.66l60.1.79s-15.96-4.99-49.91,8.14Z"/>
      <path class="cls-3" d="m440.61,53.38c-49.14-49.15-126.68-45.73-180.36,7.95l-19.08,19.08-19.08-19.08c-26.27-26.28-58.92-40.75-91.94-40.75-38.81,0-66.28,10.17-89.08,32.96C11.94,82.68-2.55,124.9,3.27,163.72c5.53,36.93,30.86,82.45,75.26,135.3l.13.15c.28.31,28.62,30.96,57.52,59.11l.13.12c34.67,31.09,102.32,87.5,102.99,88.07l2.72,2.27,2.7-2.29c.67-.57,67.85-57.56,102.6-89.43,26.93-26.34,59-59.78,59.32-60.11l.2-.23c2.35-2.83,4.81-5.74,7.34-8.73,24.94-29.48,55.97-66.16,63.86-124.5,4.17-30.81-5.77-78.4-37.44-110.07Zm29.1,108.94c-7.56,55.9-37.72,91.55-61.95,120.19-2.52,2.98-4.96,5.87-7.3,8.68-2.03,2.12-32.95,34.31-58.93,59.72-30.58,28.03-86.64,75.84-99.56,86.83-13-10.87-69.37-58.1-99.98-85.54-28.04-27.32-55.54-57-57.08-58.66C41.56,241.91,16.89,197.82,11.59,162.47c-5.43-36.23,8.15-75.69,35.44-102.98,21.09-21.09,46.73-30.5,83.13-30.5,30.76,0,61.3,13.6,85.98,38.28l25.03,25.03,25.03-25.03c50.28-50.29,122.7-53.7,168.46-7.95,29.64,29.65,38.95,74.17,35.05,102.99Z"/>
    </g>
    <g>
      <path class="cls-1" d="m441.76,228.1s-20.26,12.93-34.3,13.83c-14.05.9-58.33,3.63-65.42,4.18-7.1.54-22.24,6.17-21.24,17.31,1,11.14,10.18,16.18,16.66,17.71,6.35,1.5,38.72,3.08,38.72,3.08,0,0-41.13,21.82-48.35,22.63s-43.25-5.77-48.02-6.69c-8.14-1.56-15.98-.48-18.58,2.82-9.53,12.08,8.85,24.63,8.85,24.63l53.43,19.73,65.35-23.49-65.35,23.49-53.43-19.73h0s-10.28-3.85-13.15.4c-8.68,12.85,12.93,22.85,12.93,22.85l53.35,18.83,62.09-22.32-62.09,22.32-53.35-18.83s-2.05.27-3.28,2.8,2.48,6.91,6.65,8.96c3.84,2.33,55.29,21.84,55.29,21.84l50.35-14.39-50.35,14.39-32.91-12.39s-3.14,3.21.49,6.43c3.62,3.22,30.56,16.82,36.55,17.45s74.5-13.25,107.17-32.96c31.02-18.72,44.01-40.9,44.01-40.9,0,0,25.42-42.23,1.93-71.8-23.5-29.56-43.99-22.19-43.99-22.19Z"/>
      <path class="cls-6" d="m471.12,261.73c1,10.79-.46,29.96-4.69,41.85-5.74,16.14-11.4,29.6-27.86,46.06-18.91,18.91-74.69,38.28-74.69,38.28l61.85-15.71s47.58-26.06,55.86-40.15c8.28-14.09,25.81-46.76,14.96-64.34-10.85-17.58-20.82-30.68-30.92-34.42,0,0,4,12.36,5.49,28.43Z"/>
      <path class="cls-3" d="m332.82,400.16c-.24,0-.44,0-.61-.03-6.94-.73-34.56-14.63-38.9-18.49-2.5-2.22-3.1-4.62-3.16-6.24-.02-.42,0-.82.05-1.2-9.17-3.61-16.92-6.76-18.93-7.86-6.04-3.02-10.98-9.4-8.47-14.53.02-.03.03-.07.05-.1-4.32-2.83-9.93-7.54-11.65-13.73-1.16-4.17-.39-8.44,2.25-12.33,1.28-1.9,3.12-2.95,5.15-3.45-1.95-2.7-3.59-5.9-4.13-9.41-.67-4.4.52-8.7,3.46-12.42,4.39-5.56,14.96-5.82,22.67-4.34,13.24,2.53,41.48,7.27,46.76,6.64,3.12-.35,17.63-7.16,33.27-15.12-9.49-.6-20.45-1.45-24.13-2.32-8.87-2.09-18.76-8.82-19.89-21.43-.38-4.24.97-8.32,3.9-11.78,5.63-6.65,15.77-9.68,21.21-10.1,5.12-.39,28.83-1.88,47.88-3.07,7.26-.46,13.63-.85,17.6-1.11,12.79-.82,32.12-13.05,32.31-13.18l.4-.25.44-.16c.96-.34,23.62-8.03,48.71,23.53,25.03,31.49-.52,74.76-1.62,76.58-.53.9-13.86,23.27-45.44,42.33-33.17,20.02-99.67,33.57-109.17,33.57Zm-20.87-17.45c8.44,4.27,18.29,8.75,21.14,9.05,5.17.26,72.47-13.02,104.55-32.38,29.62-17.88,42.43-39.21,42.55-39.43.26-.43,23.64-40.15,2.26-67.05-19.65-24.72-36.18-21.68-38.94-20.95-3.37,2.09-21.95,13.28-35.79,14.16-3.97.25-10.34.65-17.61,1.11-18.02,1.13-42.7,2.68-47.76,3.06-4.04.31-11.74,2.79-15.43,7.15-1.48,1.75-2.12,3.58-1.94,5.59.92,10.26,10.52,13.3,13.44,13.99,4.38,1.04,25.1,2.34,37.95,2.97l15.3.75-13.53,7.18c-6.99,3.71-42.23,22.24-49.85,23.1-8.59.95-48.88-6.66-49.28-6.74-8.17-1.56-13.55.1-14.48,1.29-1.51,1.92-2.07,3.8-1.75,5.92.78,5.19,6.62,10.41,9.28,12.35l51.46,19.01,63.91-22.98,2.85,7.92-66.8,24.01-54.91-20.28c-3.22-1.19-7.3-1.71-8.27-1.06-1.15,1.75-1.51,3.45-1.01,5.24,1.42,5.12,9.28,9.86,12.17,11.25l51.73,18.26,60.68-21.81,2.85,7.92-63.5,22.83-51.97-18.34c.77.96,2.12,2.19,3.84,3.04l.32.18c2.84,1.65,33.64,13.54,53.29,21.01l49.01-14.01,2.31,8.09-51.69,14.78-16.39-6.17Z"/>
    </g>
    <path class="cls-5" d="m211.32,162.91c0,15.31-12.41,27.71-27.71,27.71s-27.71-12.41-27.71-27.71"/>
    <path class="cls-5" d="m330.67,162.91c0,15.31-12.41,27.71-27.71,27.71s-27.71-12.41-27.71-27.71"/>
    <path class="cls-5" d="m265.04,220.12c0,14.05-9.74,25.44-21.76,25.44s-21.76-11.39-21.76-25.44"/>
    <path class="cls-1" d="m110.63,315.34s20.92,11.83,35,11.97c14.07.14,58.44.5,65.55.66,7.12.16,22.53,4.97,22.13,16.14-.4,11.17-9.29,16.7-15.69,18.58-6.26,1.84-38.49,5.15-38.49,5.15,0,0,42.25,19.58,49.49,20.01,7.25.43,42.87-8.09,47.59-9.25,8.04-1.99,15.93-1.33,18.7,1.81,10.16,11.55-7.52,25.07-7.52,25.07l-55.71,21.45-54.67-17.82,54.67,17.82,55.71-21.45s10.06-4.4,13.16-.3c9.36,12.37-11.69,23.51-11.69,23.51l-52.26,21.67-62.26-18.63,62.26,18.63,52.26-21.67s2.06.16,3.43,2.62c1.37,2.46-2.11,7.03-6.16,9.31-3.71,2.53-54.04,24.78-54.04,24.78l-60.53-15.13,60.53,15.13,32.19-14.14s3.3,3.04-.14,6.45c-3.45,3.41-29.62,18.44-35.56,19.39-5.94.95-75.1-9.23-108.78-27.16-31.98-17.03-46.14-38.48-46.14-38.48,0,0-27.65-40.81-5.78-71.59s42.74-24.52,42.74-24.52Z"/>
    <path class="cls-6" d="m86.72,346.09c-1,10.79.46,29.96,4.69,41.85,5.74,16.14,11.4,29.6,27.86,46.06,18.91,18.91,74.69,38.28,74.69,38.28l-61.85-15.71s-47.58-26.06-55.86-40.15-25.81-46.76-14.96-64.34c10.85-17.58,20.82-30.68,30.92-34.42,0,0-4,12.36-5.49,28.43Z"/>
    <path class="cls-3" d="m227.85,481.33c-11.95,0-76.65-9.91-110.02-27.68-32.55-17.33-47.07-38.96-47.67-39.87-1.17-1.72-29-43.56-5.7-76.34,23.36-32.86,46.41-26.41,47.38-26.12l.45.13.41.23c.2.11,20.16,11.3,32.97,11.42,4.03.04,10.56.1,17.98.16,18.95.17,42.52.38,47.63.5,5.46.12,15.74,2.61,21.72,8.95,3.11,3.3,4.68,7.29,4.52,11.55-.45,12.65-9.96,19.9-18.71,22.47-3.62,1.07-14.53,2.5-23.97,3.61,16.04,7.11,30.9,13.12,34.03,13.31,5.25.29,33.24-5.9,46.33-9.14,7.63-1.89,18.19-2.2,22.87,3.12,3.13,3.56,4.56,7.78,4.12,12.22-.35,3.53-1.81,6.81-3.62,9.62,2.05.4,3.95,1.34,5.33,3.17,2.84,3.75,3.84,7.97,2.91,12.2-1.39,6.27-6.74,11.28-10.9,14.34.02.03.04.06.05.1,2.78,4.99-1.81,11.63-7.68,14.97-1.95,1.21-9.51,4.77-18.48,8.87.06.38.1.78.11,1.2.03,1.62-.44,4.04-2.82,6.4-4.13,4.09-30.96,19.45-37.86,20.55-.32.05-.8.08-1.4.08Zm-122.09-162.33c-6.32,0-19.86,2.8-34.44,23.31-19.9,28,5.58,66.41,5.84,66.79.16.24,14.09,20.86,44.63,37.12,33.08,17.61,100.96,27.29,106.18,26.72,2.81-.45,12.39-5.45,20.59-10.17l-14.75,6.48s0,0,0,0l-1.32.59-61.93-15.48,2.04-8.17,59.13,14.78c19.23-8.51,49.3-22.03,52.06-23.83l.3-.19c1.67-.94,2.95-2.24,3.67-3.24l-50.91,21.11-63.69-19.06,2.41-8.07,60.82,18.2,50.68-21.01c2.8-1.54,10.41-6.69,11.55-11.88.4-1.81-.05-3.49-1.4-5.29-.86-.47-4.6.2-7.67,1.44l-.05.04-57.67,22.21-56.09-18.29,2.61-8,53.25,17.36,53.72-20.68c2.57-2.11,8.04-7.6,8.54-12.77.21-2.13-.45-3.98-2.06-5.82-1-1.14-6.46-2.51-14.53-.51-.4.1-40.23,9.82-48.85,9.37-7.66-.45-43.84-17.07-51.02-20.39l-13.89-6.44,15.23-1.57c12.8-1.32,33.42-3.73,37.74-5,2.88-.84,12.3-4.4,12.67-14.69.07-2.01-.66-3.8-2.23-5.47-3.91-4.15-11.73-6.22-15.79-6.31-5.05-.11-29.59-.33-47.51-.49-7.42-.07-13.95-.12-17.99-.16-13.87-.14-33.03-10.31-36.5-12.22-.57-.12-1.71-.3-3.32-.3Z"/>
  </g>
</svg>