<?xml version="1.0" encoding="UTF-8"?>
<svg id="_레이어_2" data-name="레이어 2" xmlns="http://www.w3.org/2000/svg" viewBox="0 0 500 500">
  <defs>
    <style>
      .cls-1, .cls-2 {
        fill: #fff;
      }

      .cls-2 {
        opacity: 0;
      }

      .cls-3 {
        fill: #111;
      }

      .cls-4 {
        fill: #ef7f33;
      }

      .cls-5 {
        fill: #3596d4;
        stroke: #111;
        stroke-miterlimit: 10;
        stroke-width: 8px;
      }
    </style>
  </defs>
  <g id="_레이어_1-2" data-name="레이어 1">
    <g>
      <rect class="cls-2" width="500" height="500"/>
      <path class="cls-5" d="m466.6,438.71c-32.24,12.45-64.47,24.9-96.71,37.35-2.25.87-4.75.88-7.01.02-32.96-12.47-65.92-24.93-98.88-37.4-3.6-1.36-6.07-4.7-6.32-8.53l-14.45-220.2c-.37-5.66,4.12-10.45,9.79-10.45h224.5c5.67,0,10.16,4.79,9.79,10.45l-14.46,220.25c-.25,3.81-2.69,7.13-6.25,8.51Z"/>
      <polyline class="cls-1" points="405.14 285.5 402.03 315.31 334.46 315.31 334.46 332.17 334.46 349.02 400.26 349.02 399.9 369.26 363 386.57 304.91 358.61 297.32 373.66 289.73 388.71 363.21 424.43 431.54 390.82 442.55 251.79 294.31 251.79 294.31 285.5"/>
      <path class="cls-4" d="m269.93,292.55c-36.96,14.28-73.92,28.55-110.88,42.83-2.58,1-5.44,1.01-8.03.03-37.79-14.29-75.59-28.59-113.38-42.88-4.12-1.56-6.96-5.38-7.25-9.78L13.82,30.26c-.43-6.49,4.72-11.99,11.22-11.99h257.41c6.5,0,11.65,5.5,11.22,11.99l-16.58,252.53c-.29,4.37-3.09,8.18-7.17,9.76Z"/>
      <path class="cls-3" d="m155,340.14c-1.83,0-3.65-.33-5.39-.99l-113.38-42.88c-5.58-2.11-9.43-7.31-9.82-13.26L9.83,30.52c-.28-4.19,1.21-8.36,4.09-11.42s6.93-4.83,11.13-4.83h257.41c4.2,0,8.26,1.76,11.13,4.83,2.87,3.07,4.36,7.23,4.09,11.42l-16.58,252.53c-.39,5.9-4.2,11.09-9.72,13.23l-110.88,42.83c-1.77.68-3.63,1.03-5.5,1.03ZM25.04,22.28c-2.03,0-3.91.81-5.29,2.29-1.39,1.48-2.08,3.41-1.94,5.43l16.57,252.48c.19,2.83,2.02,5.3,4.67,6.3l113.38,42.88c1.67.63,3.51.62,5.18-.02l110.88-42.83c2.62-1.01,4.44-3.48,4.62-6.29l16.58-252.53c.13-2.02-.56-3.95-1.94-5.43s-3.26-2.29-5.29-2.29H25.04Z"/>
      <polygon class="cls-1" points="156.07 269.76 73.55 222.72 94.86 185.34 154.43 219.3 194.25 193.03 196.22 178.68 67.71 178.68 61.13 84.65 246.37 84.65 246.37 127.68 107.27 127.68 107.83 135.65 245.53 135.65 234.24 218.2 156.07 269.76"/>
    </g>
  </g>
</svg>