<?xml version="1.0" encoding="UTF-8"?>
<svg id="_레이어_2" data-name="레이어 2" xmlns="http://www.w3.org/2000/svg" viewBox="0 0 500 500">
  <defs>
    <style>
      .cls-1 {
        fill: #fff;
        opacity: 0;
      }

      .cls-2 {
        fill: #55c0de;
        stroke: #111;
        stroke-miterlimit: 10;
        stroke-width: 8px;
      }
    </style>
  </defs>
  <g id="_레이어_1-2" data-name="레이어 1">
    <rect class="cls-1" width="500" height="500"/>
    <g>
      <path class="cls-2" d="m95.75,403.59c.71-26.07,6.61-51.17,14.49-75.86,1.46-4.56,1.43-6.5-4.09-7.97-22.25-5.96-43.9-13.64-63.53-26.08-8.7-5.51-16.9-11.63-23.34-19.79-15.74-19.96-15.03-41.77,2.18-60.53,12.41-13.53,28.16-22.21,44.73-29.46,12.35-5.41,25.04-9.97,38.11-13.33,3.73-.96,4.72-2.33,3.51-6.34-7.06-23.44-12.15-47.26-12.08-71.92.04-11.8,2.15-23.23,6.76-34.08,9.29-21.87,29.75-31.61,54.63-26.25,21.06,4.53,38.93,15.46,56,27.93,12.67,9.25,24.4,19.63,35.42,30.78,3.17,3.21,5.05,3.04,8.17,0,19.22-18.81,39.62-36.12,63.73-48.53,10.62-5.47,21.72-9.39,33.59-11.19,23.4-3.56,43.86,9.62,51.18,33.31,4.96,16.08,4.94,32.47,3.13,49.06-1.98,18.12-6.11,35.74-11.31,53.13-1.14,3.8.61,4.71,3.51,5.59,16.16,4.92,32.13,10.36,47,18.51,13.32,7.3,26.09,15.39,35.07,28.07,13.83,19.52,12.33,40.23-4.05,57.88-12.88,13.88-29.07,22.79-46.14,30.21-11.37,4.94-23.12,8.96-35.09,12.2-3.74,1.01-4.28,2.26-3.06,5.95,8.81,26.67,15.27,53.86,15.2,82.14-.03,13.91-2.28,27.48-9.36,39.92-10.13,17.8-28.07,24.4-46.76,21.69-21.04-3.05-38.96-13.24-56.03-25.18-14.64-10.23-28.05-21.96-40.72-34.5-3.13-3.1-4.77-3.24-7.99-.04-18.55,18.47-38.47,35.25-61.7,47.68-12.79,6.84-26.2,12.02-40.89,12.51-21.08.69-37.03-10.33-44.46-30.06-4.31-11.44-6.03-23.25-5.8-35.43Zm152.94-86.75c17.05.19,32.5-.49,47.94-1.72,2.84-.23,4.6-1.31,6.11-3.57,12.88-19.31,25.06-39.03,36.03-59.5.88-1.64.85-2.84-.02-4.46-13.14-24.42-27.78-47.92-43.74-70.6-1.2-1.71-2.5-2.72-4.8-2.85-24.64-1.38-49.28-1.57-73.94-.3-2.79.14-4.52,1.06-6.13,3.39-15.58,22.49-30.18,45.58-43.22,69.65-1.15,2.13-1.2,3.71,0,5.92,10.95,20.28,23.04,39.85,35.82,59.02,1.77,2.66,3.81,3.87,7.04,3.96,13.49.37,26.96,1.54,38.92,1.06Zm140.5,84.16c-.73-23.56-7.02-48.35-14.99-72.83-.94-2.88-2.61-3.1-4.92-2.53-17.84,4.4-36.15,5.78-54.28,8.32-2.59.36-4.24,1.27-5.69,3.34-12.17,17.19-25.08,33.82-39.37,49.3-3.11,3.37-2.03,5.19.64,7.81,13.28,12.98,27.25,25.12,42.71,35.45,12.15,8.12,24.86,15.12,39.33,18.27,16.25,3.54,27.45-2.63,33.03-18.2,3.08-8.59,3.48-17.55,3.55-28.92Zm-272.94,3.55c-.21,5.72.53,13.6,2.15,21.35,2.87,13.73,11.65,22.03,23.64,22.92,9.47.7,18.14-2.22,26.52-5.94,26.27-11.65,47.43-30.28,67.78-50.02,2.5-2.42,1.22-3.79-.46-5.68-13.78-15.44-26.76-31.54-38.68-48.47-2.13-3.02-4.72-4.1-8.06-4.45-17.86-1.9-35.69-3.97-53.3-7.59-2.18-.45-3.95-.42-4.93,2.55-7.81,23.79-13.98,47.88-14.66,75.32ZM389.21,96.08c.13-10.52-.95-20.83-5.31-30.53-4.23-9.41-11.5-14.43-21.92-14.69-9.03-.23-17.38,2.47-25.45,6.09-26.07,11.67-47.09,30.18-67.33,49.76-2.53,2.45-1.31,3.86.34,5.74,10.9,12.47,21.51,25.19,31.32,38.53,1.99,2.7,4.12,4.11,7.48,4.36,21.71,1.6,43.14,5.21,64.44,9.55,2.72.55,3.41-.13,4.12-2.39,6.77-21.65,11.71-43.63,12.31-66.42Zm-272.87-4.48c-.08,26.16,5.38,47.84,11.42,69.45,1.07,3.82,3.34,2.9,5.79,2.45,21.55-3.95,43.18-7.32,65.06-8.79,2.23-.15,3.7-1.07,4.95-2.72,10.3-13.63,21.02-26.92,32.45-39.62,2.14-2.38,2.04-3.87-.31-6.15-11.13-10.76-22.52-21.22-35.04-30.35-14.72-10.73-30.1-20.27-48.24-24.26-16.35-3.6-28.42,3.53-33.11,19.53-2.3,7.84-2.9,15.87-2.97,20.47ZM28.32,244.71c-.24,5.92,2.32,10.8,5.66,15.37,5.31,7.26,12.55,12.31,20.07,16.91,18.7,11.43,39.15,18.47,60.23,24.07,4,1.06,5.5.07,6.79-3.32,5.72-15.12,12.69-29.69,19.74-44.22,1.34-2.76,1.13-4.9-.17-7.55-8.62-17.56-16.7-35.37-23.45-53.75-1.15-3.14-2.57-3.67-5.51-2.73-9.74,3.11-19.62,5.74-29.12,9.58-15.88,6.42-31.38,13.55-43.93,25.62-5.65,5.44-10.13,11.68-10.31,20.01Zm443.38.83c.16-4.51-1.28-8.52-3.49-12.33-3.51-6.04-8.52-10.66-14.09-14.71-18.15-13.2-38.79-20.89-60.07-27.24-3.82-1.14-5.38-.5-6.73,3.18-6.58,17.9-14.41,35.27-22.98,52.3-1.21,2.41-1.03,4.26.09,6.54,7.1,14.53,14.06,29.14,19.73,44.3,1.02,2.72,2.35,3.11,5.27,2.39,10.33-2.53,20.34-6.04,30.19-9.93,14.26-5.63,27.94-12.51,39.61-22.69,6.62-5.78,11.86-12.55,12.48-21.83Zm-219.29,90.96c0,.11,0,.21,0,.32-8.79,0-17.59-.03-26.38.04-1.31.01-3.06-1.04-3.87.73-.63,1.37.81,2.23,1.53,3.18,8.27,10.85,17.05,21.28,25.94,31.62,2.09,2.44,3.4,2.78,5.79.1,9.3-10.46,18.07-21.36,26.7-32.36.65-.83,1.68-1.63,1.11-2.8-.72-1.47-2.22-.78-3.37-.79-9.15-.05-18.3-.03-27.45-.03Zm-98-108.95c10.19-17.74,20.25-34.06,31.44-50.84-16.52,1.15-31.39,3.35-46.13,6.44-1.54.32-4.56-.01-3.19,3.4,5.4,13.46,10.69,26.96,17.87,41Zm196.49-.25c6.93-13.54,12.34-26.55,17.42-39.72,1.14-2.96-.83-2.89-2.53-3.25-5.59-1.18-11.16-2.55-16.8-3.41-9.24-1.41-18.48-3.08-28.98-3.56,10.9,16.85,20.97,32.83,30.89,49.94Zm-196.65,44.92c-5.52,10.85-9.89,21.43-14.2,32.04-.87,2.14.23,2.73,2.25,3.06,7.24,1.2,14.4,2.92,21.68,3.82,4.6.57,9.24,2.13,14.5,1.16-8.15-13.49-16-26.47-24.22-40.08Zm173.72,39.8c11.85-1.15,23.53-3.54,35.22-5.8,1.62-.31,2.77-.97,1.88-2.92-4.62-10.06-8.26-20.58-14.04-30.69-7.45,12.15-14.66,23.88-21.82,35.65-.61,1-1.73,1.9-1.24,3.76Zm-99.25-158.83c15.88,0,30.21,0,44.54.01.88,0,1.85.31,2.34-.71.49-1.02-.37-1.64-.92-2.29-6.7-7.95-13.42-15.88-20.08-23.86-1.3-1.57-2.26-1.95-3.77-.2-7.24,8.35-14.64,16.56-22.11,27.05Z"/>
      <path class="cls-2" d="m298.59,246.22c.5,24.54-20.05,45.45-44.89,45.69-24.25.23-44.87-20.16-45.33-44.82-.45-24.08,19.91-44.73,44.7-45.35,24.09-.6,45.02,19.85,45.53,44.48Z"/>
    </g>
  </g>
</svg>