<?xml version="1.0" encoding="UTF-8"?>
<svg id="_레이어_2" data-name="레이어 2" xmlns="http://www.w3.org/2000/svg" viewBox="0 0 500 500">
  <defs>
    <style>
      .cls-1 {
        fill: #fff;
        opacity: 0;
      }

      .cls-2 {
        fill: #ffd31a;
      }

      .cls-3 {
        fill: #111;
      }
    </style>
  </defs>
  <g id="_레이어_1-2" data-name="레이어 1">
    <rect class="cls-1" width="500" height="500"/>
    <g>
      <rect class="cls-2" x="20.33" y="20.33" width="459.33" height="459.33" rx="26.68" ry="26.68"/>
      <path class="cls-3" d="m452.98,24.33c12.51,0,22.68,10.18,22.68,22.68v405.97c0,12.51-10.18,22.68-22.68,22.68H47.02c-12.51,0-22.68-10.18-22.68-22.68V47.02c0-12.51,10.18-22.68,22.68-22.68h405.97m0-8H47.02c-16.95,0-30.68,13.74-30.68,30.68v405.97c0,16.95,13.74,30.68,30.68,30.68h405.97c16.95,0,30.68-13.74,30.68-30.68V47.02c0-16.95-13.74-30.68-30.68-30.68h0Z"/>
    </g>
    <g>
      <path d="m194.43,383.81l23.02-17.12c5.54,10.3,13.22,14.98,20.87,14.98,12.11,0,18.65-6.19,18.65-26.17v-97.15h33.87v99.97c0,28.83-14.96,52.6-48.06,52.6-22.91,0-37.97-8.95-48.36-27.1Z"/>
      <path d="m315.75,389.25l19.45-23.24c10.65,9.27,24.47,15.65,36.8,15.65,14.14,0,21.06-5.57,21.06-14.46,0-9.43-8.52-12.46-21.6-17.84l-19.47-8.3c-15.52-6.31-30.23-19.07-30.23-40.84,0-24.83,22.18-44.65,53.36-44.65,17.25,0,35.29,6.8,48.19,19.63l-17.1,21.34c-9.87-7.57-19.25-11.73-31.1-11.73s-19.11,4.86-19.11,13.43c0,9.19,9.8,12.53,22.87,17.73l19.09,7.73c18.29,7.4,29.72,19.58,29.72,40.75,0,24.88-20.74,46.43-56.44,46.43-19.49,0-40.21-7.38-55.49-21.66Z"/>
    </g>
  </g>
</svg>