<?xml version="1.0" encoding="UTF-8"?>
<svg id="_레이어_2" data-name="레이어 2" xmlns="http://www.w3.org/2000/svg" viewBox="0 0 500 500">
  <defs>
    <style>
      .cls-1 {
        fill: #fff;
        opacity: 0;
      }

      .cls-2 {
        fill: #111;
      }

      .cls-3 {
        fill: #ff3b3b;
      }

      .cls-3, .cls-4, .cls-5, .cls-6, .cls-7 {
        stroke: #231815;
        stroke-miterlimit: 10;
        stroke-width: 8px;
      }

      .cls-4 {
        fill: #a839ff;
      }

      .cls-5 {
        fill: #33ff8f;
      }

      .cls-6 {
        fill: #ff8080;
      }

      .cls-7 {
        fill: #3ecdff;
      }
    </style>
  </defs>
  <g id="_레이어_1-2" data-name="레이어 1">
    <rect class="cls-1" width="500" height="500"/>
    <g>
      <path class="cls-2" d="m269.52,84.44l47.62-10.96c30.5-7.02,57.59-1.73,65.32,32.09,7.47,32.71-14.1,52.91-43.47,59.67l-17.13,3.94,10.78,47.22-31.33,7.21-31.78-139.17Zm61.91,56.24c17.23-3.97,23.62-13.55,20.31-28.04-3.33-14.57-13.8-17.65-30.75-13.75l-14.43,3.32,9.59,41.99,15.28-3.52Z"/>
      <path class="cls-2" d="m411.19,185.43l9.6-22.79c11.22,5.06,20.93,6.89,29.76,4.86,9.3-2.14,12.51-6.63,11.25-12.18-1.59-6.98-12.77-7.74-24.6-9.51-14.08-2.05-31.03-7.21-35.03-24.72-4.5-19.72,8.39-36.84,32.73-42.44,16.16-3.72,29.7.07,40.24,4.86l-9.69,22.07c-8.76-3.75-16.98-5.61-24.28-3.93-8.08,1.86-11.33,5.95-10.12,11.23,1.54,6.75,12.01,7.07,23.86,8.54,14.49,1.89,31.27,5.97,35.7,25.33,4.38,19.17-7.26,37.64-35.53,44.15-13.91,3.2-31.21.81-43.88-5.47Z"/>
    </g>
    <g>
      <path class="cls-2" d="m337.93,270.87l-72.53,129.44,31.91,6.77,15.48-31.21,42.1,8.93,1.55,34.83,33.04,7.01-14.2-147.83-37.35-7.92Zm-13.72,81.97l6.01-12.13c6.75-13.05,13.85-28.48,20.27-42.41l.85.18c.65,15.25.88,32.42,1.81,47.09l.6,13.53-29.54-6.27Z"/>
      <path class="cls-2" d="m449.8,278.91c-10.45-2.22-19.45,2.94-21.46,12.52-2,9.51,4.14,17.95,14.59,20.17,10.45,2.22,19.46-3.01,21.46-12.52,2.02-9.59-4.14-17.95-14.58-20.17Z"/>
      <polygon class="cls-2" points="401.87 429.25 433.01 435.85 455.21 330.33 424.07 323.72 401.87 429.25"/>
    </g>
    <g>
      <ellipse class="cls-7" cx="193.14" cy="247.49" rx="61.37" ry="61.12" transform="translate(-56.48 437.88) rotate(-89.37)"/>
      <path class="cls-4" d="m9.63,185.79h67.71c30.09,0,54.53,24.43,54.53,54.53v13.96c0,29.94-24.31,54.25-54.25,54.25H9.63v-122.74h0Z" transform="translate(141.89 494.2) rotate(179.91)"/>
      <path class="cls-3" d="m9.45,63.39h67.71c30.09,0,54.53,24.43,54.53,54.53v13.96c0,29.94-24.31,54.25-54.25,54.25H9.45V63.39h0Z" transform="translate(141.33 249.41) rotate(179.91)"/>
      <path class="cls-6" d="m131.03,63.2h67.99c29.94,0,54.25,24.31,54.25,54.25v13.96c0,30.09-24.43,54.53-54.53,54.53h-67.71V63.2h0Z" transform="translate(-.2 .3) rotate(-.09)"/>
      <path class="cls-5" d="m132.03,371.17s0-.04,0-.06l-.09-61.31-57.15.23c-1.32-.08-2.64-.14-3.97-.14-34.72.05-62.64,29.17-60.96,64.39,1.49,31.33,26.79,56.75,57.99,58.27,34.86,1.7,63.66-25.92,64.15-60.4v-12.94s.02,12.01.02,12.01c0-.02,0-.04,0-.06Z"/>
    </g>
  </g>
</svg>