<?xml version="1.0" encoding="UTF-8"?>
<svg id="_레이어_2" data-name="레이어 2" xmlns="http://www.w3.org/2000/svg" viewBox="0 0 500 500">
  <defs>
    <style>
      .cls-1, .cls-2 {
        fill: #fff;
      }

      .cls-3 {
        fill: #ffe817;
        stroke: #111;
        stroke-miterlimit: 10;
        stroke-width: 8px;
      }

      .cls-2 {
        opacity: 0;
      }

      .cls-4 {
        fill: #ff6d33;
      }

      .cls-5 {
        fill: #111;
      }

      .cls-6 {
        fill: #64d600;
      }

      .cls-7 {
        fill: #e25423;
      }

      .cls-8 {
        fill: none;
      }

      .cls-9 {
        fill: #6efa00;
      }
    </style>
  </defs>
  <g id="_레이어_1-2" data-name="레이어 1">
    <g>
      <circle class="cls-9" cx="250.82" cy="250" r="245.54" transform="translate(-103.31 250.58) rotate(-45)"/>
      <path class="cls-6" d="m159.61,31.79c-40.98,36.84-116.98,108.79-111.8,222.76,5.55,122.01,71.23,176.12,108.28,201.5,70.16,48.07,105.37,39.09,105.37,39.09l-40.73-1.34s-153.61-12.91-201.17-158.83C-27.99,189.06,58.2,96.7,58.2,96.7c0,0,55.78-78.88,133.26-85.2,0,0-21.1,10.63-31.85,20.29Z"/>
      <path class="cls-5" d="m250,500C112.15,500,0,387.85,0,250S112.15,0,250,0s250,112.15,250,250-112.15,250-250,250Zm0-491.09C117.06,8.91,8.91,117.06,8.91,250s108.15,241.09,241.09,241.09,241.09-108.15,241.09-241.09S382.94,8.91,250,8.91Z"/>
      <rect class="cls-5" x="159.61" y="136.77" width="27.08" height="49.91" rx="7.6" ry="7.6"/>
      <rect class="cls-5" x="313.31" y="136.77" width="27.08" height="49.91" rx="7.6" ry="7.6"/>
      <path class="cls-4" d="m252.06,395.66c62.58,0,117.03-43.23,131.5-103.57H120.56c14.47,60.33,68.92,103.57,131.5,103.57Z"/>
      <path class="cls-1" d="m112.36,260.41c0,9.32.93,18.42,2.67,27.23h274.07c1.74-8.81,2.67-17.91,2.67-27.23H112.36Z"/>
      <circle class="cls-1" cx="166.12" cy="150.76" r="3.96"/>
      <circle class="cls-1" cx="166.12" cy="150.76" r="3.96"/>
      <path class="cls-7" d="m151.79,304.93c1.52,4.42,23.2,78.72,98.21,99.65,0,0-36.33-.92-56.72-14.56-20.39-13.63-67.65-42.68-74.65-92.86v-4.94h31.05s.59,8.29,2.11,12.71Z"/>
      <circle class="cls-1" cx="319.82" cy="150.76" r="3.96"/>
      <path class="cls-8" d="m383.56,292.1H120.56c14.47,60.33,68.92,103.57,131.5,103.57s117.03-43.23,131.5-103.57Z"/>
      <path class="cls-5" d="m396.27,255.91H107.86v4.5c0,7.59.62,15.23,1.82,22.77h-.07l.37,1.88c.2,1.15.41,2.3.64,3.45l.72,3.63h.1c14.68,65.37,73.23,112.44,140.63,112.44s125.95-47.06,140.63-112.44h.1l.72-3.63c.23-1.14.44-2.28.63-3.43l.38-1.9h-.07c1.2-7.54,1.82-15.18,1.82-22.77v-4.5Zm-144.21,139.75c-62.56,0-117-43.21-131.49-103.52h262.98c-14.49,60.31-68.92,103.52-131.49,103.52Zm135.13-130.75c-.2,6.09-.82,12.19-1.85,18.23H118.78c-1.02-6.03-1.64-12.14-1.85-18.23h270.26Z"/>
      <path class="cls-3" d="m70.2,25.85s7.79,29,20.68,43.99c12.89,15,37.82,24.06,37.82,24.06,0,0-26.76,11.2-37.82,24.06s-20.68,43.99-20.68,43.99c0,0-9.62-31.13-20.68-43.99-11.06-12.87-37.82-24.06-37.82-24.06,0,0,27.25-11.76,37.82-24.06,10.57-12.3,20.68-43.99,20.68-43.99Z"/>
    </g>
    <rect class="cls-2" width="500" height="500"/>
  </g>
</svg>